<svg width="70" height="60" viewBox="0 0 70 60" fill="none" xmlns="http://www.w3.org/2000/svg">
<g clip-path="url(#clip0)">
<path d="M66.3787 1.13619C65.6981 -0.32865 63.7537 -0.387243 62.9394 0.995569C59.1721 7.31197 52.4273 11.2495 44.7224 11.2495H35.0002C22.1182 11.2495 11.6669 21.3276 11.6669 33.7495C11.6669 34.5698 11.7641 35.3549 11.8491 36.1518C19.6026 30.7963 30.7953 26.2495 46.6669 26.2495C47.7363 26.2495 48.6113 27.0932 48.6113 28.1245C48.6113 29.1557 47.7363 29.9995 46.6669 29.9995C16.1148 29.9995 3.15991 48.0581 0.291853 54.8432C-0.51023 56.7534 0.437687 58.9331 2.41859 59.7182C4.41165 60.5151 6.67206 59.5893 7.49845 57.6909C7.68074 57.269 10.0384 52.0776 16.2363 47.0737C20.1738 52.2182 27.6599 57.1284 37.4915 56.1206C56.5714 54.7846 70.0002 38.2846 70.0002 18.0815C70.0002 12.1987 68.6877 6.10494 66.3787 1.13619Z" fill="#F9F4F0"/>
</g>
<defs>
<clipPath id="clip0">
<rect width="70" height="60" fill="white"/>
</clipPath>
</defs>
</svg>
